<?xml version="1.0" standalone="no"?>
<!DOCTYPE svg PUBLIC "-//W3C//DTD SVG 20010904//EN"
 "http://www.w3.org/TR/2001/REC-SVG-20010904/DTD/svg10.dtd">
<svg version="1.0" xmlns="http://www.w3.org/2000/svg"
 width="600.000000pt" height="600.000000pt" viewBox="0 0 600.000000 600.000000"
 preserveAspectRatio="xMidYMid meet">
<metadata>
Created by potrace 1.16, written by Peter Selinger 2001-2019
</metadata>
<g transform="translate(0.000000,600.000000) scale(0.100000,-0.100000)"
fill="#000000" stroke="none">
<path d="M0 5730 l0 -270 24 0 c29 0 54 -22 62 -56 3 -13 12 -24 19 -24 15 0
172 -87 180 -100 3 -5 -4 -14 -15 -20 -13 -7 -20 -20 -19 -38 2 -26 2 -26 6
-2 3 13 12 30 21 37 21 16 143 17 177 1 24 -11 25 -15 25 -89 0 -63 -3 -80
-18 -89 -16 -11 -16 -11 1 -6 16 5 17 -6 17 -129 l0 -135 -110 0 -110 0 0 130
c0 94 3 130 12 130 9 0 9 3 0 12 -7 7 -12 32 -12 58 l0 45 -53 21 c-51 21 -52
22 -55 67 -3 52 -9 55 -97 46 l-60 -6 73 -1 73 -2 -3 -115 -4 -115 34 0 c22 0
32 -4 30 -12 -3 -9 -37 -15 -104 -19 l-99 -5 111 -2 c89 -2 113 -5 118 -17 10
-27 -5 -45 -38 -46 l-31 -1 30 -7 c23 -5 31 -12 33 -33 3 -23 -2 -28 -35 -37
-21 -6 -49 -12 -63 -12 -24 -2 -24 -2 -2 -6 20 -4 27 -14 23 -35 0 -5 17 -8
39 -8 39 0 45 -6 40 -40 -3 -20 -19 -30 -53 -30 -24 0 -27 -3 -25 -31 2 -28 5
-30 30 -25 17 3 33 0 42 -10 28 -27 -6 -64 -58 -64 -23 0 -25 -3 -16 -24 7
-20 6 -26 -8 -29 -9 -3 6 -4 33 -3 48 1 50 0 53 -26 3 -22 -2 -30 -23 -38 -14
-5 -38 -10 -53 -10 -15 0 -22 -4 -16 -8 23 -15 23 -41 1 -45 -12 -2 3 -4 33
-3 53 1 55 0 58 -27 4 -32 3 -32 -103 -51 -44 -8 -74 -15 -67 -15 16 -1 16
-38 -1 -44 -6 -3 -2 -6 9 -6 17 -1 20 4 17 22 -4 21 -2 23 31 19 20 -2 39 -8
42 -13 3 -5 18 -9 34 -9 32 0 54 -27 40 -50 -4 -7 -48 -21 -97 -31 -48 -9 -82
-18 -75 -18 19 -1 14 -39 -5 -44 -14 -4 -12 -5 5 -6 17 -1 22 4 22 24 0 22 3
24 33 18 17 -3 34 -10 37 -14 3 -4 20 -7 39 -7 28 1 51 -13 51 -32 0 -20 -29
-33 -111 -49 -52 -10 -86 -19 -76 -20 22 -1 22 -38 0 -44 -14 -4 -12 -5 5 -6
17 -1 22 4 22 25 0 22 3 25 23 20 12 -3 33 -6 47 -6 20 0 22 -2 10 -11 -11 -8
-7 -9 17 -5 30 5 63 -12 63 -33 0 -22 -44 -40 -125 -52 -71 -10 -85 -14 -65
-20 22 -8 22 -8 -7 -6 -18 2 -30 0 -27 -5 3 -4 49 -8 103 -8 78 0 101 -3 112
-16 9 -11 10 -20 2 -32 -8 -14 -32 -18 -119 -23 l-109 -5 103 -2 c60 -1 102
-6 102 -12 0 -6 -42 -11 -102 -12 -57 -1 -82 -3 -56 -5 l48 -4 0 -50 c0 -66
-22 -108 -60 -116 l-30 -5 1 -202 0 -201 21 53 c18 46 24 52 49 52 l29 0 0
-284 0 -285 -52 -4 -53 -3 58 -2 57 -2 0 -120 0 -120 -55 0 -55 0 0 -182 c0
-101 4 -178 8 -171 4 6 16 13 27 15 11 1 22 6 25 10 9 12 91 27 180 33 52 4
157 -8 190 -22 8 -3 24 -8 35 -10 11 -2 22 -8 23 -13 2 -6 8 -8 12 -5 5 3 18
-3 28 -13 10 -10 23 -17 28 -15 5 2 26 -12 47 -31 20 -18 37 -31 37 -28 0 3 9
-3 20 -13 11 -10 17 -22 14 -27 -3 -4 0 -7 6 -6 7 2 17 -5 23 -16 7 -10 24
-32 40 -48 25 -28 29 -36 26 -54 0 -4 4 -10 10 -14 12 -7 50 -106 58 -150 6
-30 6 -195 0 -230 -9 -53 -20 -91 -28 -96 -5 -3 -9 -14 -9 -25 0 -11 -6 -22
-14 -25 -8 -3 -12 -12 -10 -19 3 -8 -3 -19 -14 -26 -11 -7 -18 -18 -15 -25 2
-7 -5 -19 -16 -26 -12 -7 -21 -17 -21 -21 0 -13 -53 -67 -65 -67 -6 0 -16 -9
-23 -21 -7 -12 -16 -19 -19 -16 -2 3 -13 -3 -24 -14 -11 -11 -24 -17 -28 -14
-5 2 -11 -2 -15 -10 -3 -8 -14 -15 -24 -15 -10 0 -22 -4 -28 -8 -16 -14 -84
-33 -94 -27 -5 3 -10 2 -10 -4 0 -6 -15 -11 -32 -11 -47 -2 -160 0 -183 3 -42
5 -141 41 -152 55 -11 13 -13 -19 -13 -165 l0 -180 52 9 c68 13 277 3 348 -15
53 -14 47 -15 -175 -18 -126 -1 -202 -4 -167 -6 l62 -4 0 -54 0 -54 -62 -4
c-35 -2 42 -4 170 -5 l232 -2 0 -165 0 -165 -232 -3 -233 -2 233 -3 232 -2 0
-25 0 -25 -230 0 -230 0 0 -131 0 -130 365 2 365 1 0 79 c0 64 3 79 15 79 12
0 15 -16 15 -80 l0 -80 100 0 100 0 0 110 c0 67 4 110 10 110 6 0 10 -7 10
-17 0 -15 2 -15 19 1 16 15 38 16 172 13 85 -3 173 -5 197 -5 l42 -1 0 -102 0
-102 -39 6 c-21 2 -45 1 -52 -4 -8 -4 342 -7 777 -6 l791 2 -5 96 c-7 155 35
265 144 373 63 62 204 135 204 106 0 -7 20 -35 45 -63 46 -53 49 -67 12 -67
-76 0 -207 -113 -240 -206 -21 -60 -22 -177 -2 -219 l15 -30 -8 35 c-4 19 -7
69 -7 110 1 91 29 154 98 217 56 52 94 72 152 80 39 5 50 2 72 -18 15 -13 -8
14 -50 61 -68 75 -77 89 -72 115 3 16 11 33 18 37 6 5 62 7 122 5 83 -3 124
-9 167 -26 123 -48 241 -166 289 -289 19 -46 23 -77 23 -162 1 -58 -2 -117 -7
-132 l-7 -28 180 0 180 0 0 90 0 90 -35 0 c-34 0 -35 1 -35 40 0 39 1 40 35
40 28 0 35 4 35 20 0 20 7 20 665 20 658 0 665 0 665 -20 0 -17 7 -20 41 -20
l40 0 -3 -37 c-3 -36 -5 -38 -40 -41 l-38 -3 0 -90 0 -89 230 0 230 0 0 129 0
130 -47 3 c-41 3 -48 6 -51 26 -3 20 1 22 50 24 l53 2 -47 3 -48 4 0 164 0
164 48 4 47 3 -47 2 -48 2 0 55 0 55 48 2 47 1 -45 6 -45 7 43 8 42 8 0 173
c0 165 -1 174 -20 180 -11 3 -20 11 -20 16 0 5 -6 9 -14 9 -14 0 -146 120
-146 133 0 4 -9 16 -20 27 -12 12 -18 25 -15 29 2 5 -2 11 -10 15 -8 3 -15 14
-15 25 0 11 -4 21 -10 23 -5 2 -11 12 -13 23 -2 11 -7 27 -10 35 -13 35 -21
78 -22 118 -1 23 -5 45 -8 48 -3 4 -4 18 -1 33 2 14 6 42 8 61 8 63 18 110 25
110 4 0 8 10 8 22 1 13 7 24 13 26 5 2 8 8 5 12 -3 5 2 18 12 28 10 10 19 25
21 33 2 8 10 20 19 27 9 6 13 12 8 12 -5 0 23 32 63 70 40 39 79 70 87 70 8 0
15 4 15 9 0 5 8 12 18 15 18 6 19 38 20 746 1 470 -1 740 -8 740 -5 0 -18 10
-30 22 -16 17 -20 35 -20 84 l0 63 33 4 c17 2 -7 5 -55 5 -49 1 -88 6 -88 12
0 5 39 11 88 13 l87 3 -97 2 c-82 2 -99 5 -107 20 -6 11 -6 24 -1 32 5 8 7 24
4 35 -8 34 10 45 102 61 95 17 116 24 67 24 -48 0 -93 11 -87 22 4 5 -8 7 -28
3 -38 -7 -62 11 -56 41 4 20 26 28 128 45 41 7 64 14 50 16 -105 13 -115 16
-95 23 13 5 3 7 -30 6 -49 -1 -50 -1 -50 29 0 30 1 30 83 45 45 8 82 17 82 21
0 3 -19 9 -42 13 -112 16 -123 20 -126 48 -3 22 2 28 20 33 13 3 41 9 63 14
23 5 30 9 18 10 -16 1 -23 7 -23 21 0 16 -7 20 -35 20 -63 0 -59 62 4 68 28 3
31 6 29 33 -2 26 -5 29 -29 24 -30 -7 -53 14 -47 42 2 12 18 22 44 28 35 9 40
13 34 30 -5 14 -2 22 9 27 9 5 -2 6 -24 3 -49 -6 -68 5 -63 36 2 20 12 26 53
36 28 6 45 12 39 12 -7 1 -14 10 -17 20 -4 15 1 21 22 24 14 2 -1 4 -34 3 -58
-1 -60 0 -63 26 -3 22 2 28 20 33 13 3 41 9 63 14 23 5 30 9 18 10 -13 1 -23
7 -23 14 0 8 -17 18 -37 23 -33 8 -38 13 -38 39 l0 30 100 6 100 5 -87 2 c-69
2 -88 5 -88 16 0 9 12 16 28 18 l27 3 -3 113 -3 112 63 2 c55 1 57 2 16 5
l-47 4 15 42 c21 63 35 86 56 93 17 5 18 22 18 275 l0 269 -230 0 -230 0 2
-192 3 -193 38 -3 c37 -3 38 -4 35 -40 -3 -35 -5 -37 -40 -40 -25 -2 -38 -8
-38 -18 0 -12 -93 -14 -665 -14 -584 0 -665 2 -665 15 0 10 -11 15 -35 15 -34
0 -35 1 -35 40 0 39 1 40 35 40 l35 0 0 195 0 195 -176 0 c-98 0 -184 -4 -194
-10 -12 -7 -27 -7 -45 0 -17 7 -24 7 -20 0 3 -6 13 -10 21 -10 36 0 -38 -131
-112 -199 -95 -87 -203 -131 -324 -131 -133 0 -246 47 -342 142 -54 54 -118
158 -118 193 0 13 -22 15 -150 15 l-150 0 0 -35 0 -35 -94 0 -95 0 -4 38 -4
37 -1 -38 -2 -37 -202 2 -203 3 -3 33 -3 32 -159 0 -158 0 0 -277 0 -278 -326
-3 -326 -2 -3 282 -2 283 -3 -282 -2 -283 -75 0 -75 0 0 -35 c0 -35 0 -35 -45
-35 l-44 0 -1 312 c0 171 -3 314 -5 317 -3 2 -5 -157 -5 -353 0 -282 -3 -357
-12 -354 -9 3 -15 35 -19 89 -3 46 -6 78 -7 72 -1 -7 -11 -13 -22 -13 -16 0
-20 7 -20 30 0 29 -2 30 -46 30 -41 0 -55 7 -142 72 -53 39 -100 76 -104 82
-10 14 -10 118 0 131 4 6 52 43 106 83 87 63 105 72 143 72 41 0 43 1 43 30
l0 30 -340 0 -340 0 0 -270z m2530 165 l0 -25 -230 0 -230 0 0 25 0 25 230 0
230 0 0 -25z m-2311 -40 l61 -36 0 -78 c0 -87 3 -82 -80 -129 l-56 -31 -67 40
-67 40 0 79 0 79 63 35 c34 20 67 36 74 36 7 0 39 -16 72 -35z m2647 -11 l64
-36 0 -81 0 -82 -69 -37 -69 -38 -65 38 -66 37 -1 82 0 81 63 36 c34 19 66 35
70 36 5 0 38 -16 73 -36z m3084 -35 l0 -69 -29 0 -29 0 -1 -107 c-1 -60 -6
-112 -10 -116 -5 -5 -38 -6 -73 -2 l-65 7 1 106 1 107 -33 3 -32 3 0 63 c0 34
3 66 7 69 3 4 64 7 135 6 l128 0 0 -70z m-1937 25 c34 -20 65 -41 69 -48 4 -6
8 -41 8 -78 0 -74 -1 -75 -98 -129 -43 -23 -44 -23 -75 -5 -18 10 -49 27 -69
38 l-38 20 0 78 0 79 68 40 c37 23 68 41 70 41 2 0 31 -16 65 -36z m-1463 -97
c0 -135 -11 -167 -56 -167 -14 0 -23 -5 -22 -12 2 -9 -15 -15 -47 -19 l-50 -6
53 -1 c53 -2 62 -8 40 -30 -7 -7 -8 -12 -2 -12 18 0 13 -60 -5 -60 -13 -1 -13
-2 2 -11 24 -14 12 -29 -26 -30 l-32 -2 33 -6 c44 -8 41 -25 -5 -32 l-38 -6
37 -2 c42 -1 56 -15 31 -30 -16 -9 -16 -10 -2 -11 12 0 16 -9 15 -32 l-2 -33
-149 -11 -150 -11 143 -1 142 -2 0 -37 c0 -108 -41 -153 -139 -153 -34 0 -61
4 -61 9 0 5 -3 16 -6 25 -5 13 3 16 50 16 43 0 61 5 76 20 24 24 27 70 5 70
-8 0 -15 -9 -15 -20 0 -11 -7 -20 -15 -20 -8 0 -15 -9 -15 -20 0 -17 -7 -20
-40 -20 -33 0 -40 3 -40 20 0 11 -6 20 -14 20 -8 0 -18 9 -21 20 -5 16 -15 20
-52 20 -42 0 -45 1 -39 24 3 12 2 26 -2 30 -3 4 -7 21 -8 37 -1 21 3 29 15 29
14 1 14 2 -1 11 -28 16 -21 29 15 31 l32 1 -33 4 c-44 6 -36 26 14 34 l39 6
-40 2 -41 1 0 70 c0 56 3 70 16 71 11 1 11 2 -2 6 -10 2 -18 11 -18 18 0 14
46 22 160 28 30 2 -4 4 -77 5 -161 2 -155 -4 -161 170 l-4 122 256 0 256 0 0
-123z m210 -287 c0 -22 5 -30 18 -31 9 -1 60 -2 112 -2 l95 -2 3 -72 3 -72
-93 0 c-147 1 -138 3 -138 -31 l0 -30 -64 0 -65 0 -3 131 c-2 72 -1 133 1 135
2 2 33 4 68 4 l63 0 0 -30z m480 -125 l0 -125 -60 0 -60 0 0 125 0 125 60 0
60 0 0 -125z m240 0 l0 -125 -60 0 -60 0 0 125 0 125 60 0 60 0 0 -125z m230
-176 l0 -300 -52 3 c-44 2 -53 6 -56 23 -2 18 -9 20 -62 17 l-60 -4 0 131 0
131 60 0 60 0 0 78 c0 50 8 103 21 150 22 71 22 72 55 72 l34 0 0 -301z m218
237 c20 -60 22 -82 22 -300 l0 -236 -55 0 -55 0 0 300 0 300 33 0 c31 0 33 -3
55 -64z m-98 -106 l0 -130 -55 0 -55 0 0 123 c0 68 3 127 7 130 3 4 28 7 55 7
l48 0 0 -130z m768 43 c-3 -66 -4 -68 -30 -71 -16 -2 -29 -6 -29 -10 -1 -4 -3
-50 -4 -102 -2 -52 -3 -98 -4 -102 -1 -5 -34 -8 -74 -8 l-73 0 1 108 0 107
-30 5 c-30 5 -30 6 -33 73 l-3 67 141 0 141 0 -3 -67z m1099 30 l63 -37 0 -81
0 -81 -69 -37 -68 -37 -66 38 -66 37 -1 80 0 81 63 37 c34 20 66 37 71 37 5 0
38 -17 73 -37z m-3707 -158 l0 -85 -35 0 c-40 0 -37 11 -40 -140 -1 -58 -3
-111 -4 -118 -1 -9 -23 -12 -86 -10 -79 3 -86 5 -84 23 1 11 0 23 -1 28 -4 19
-2 106 3 114 4 6 3 13 0 17 -4 4 -6 25 -4 46 l3 40 -39 0 -38 0 1 78 c1 42 2
80 3 85 0 4 73 7 161 7 l160 0 0 -85z m3204 59 c162 -41 296 -163 364 -329 33
-83 42 -236 17 -320 -84 -290 -363 -458 -644 -389 -97 24 -178 70 -251 144
-294 294 -164 779 240 895 63 18 201 18 274 -1z m-1954 -211 l0 -148 60 3 60
4 0 -131 0 -131 -60 0 c-57 0 -60 -1 -60 -25 0 -22 -4 -25 -34 -25 -33 0 -35
2 -55 62 -19 56 -21 85 -21 300 l0 238 55 0 55 0 0 -147z m229 -100 c0 -209
-3 -256 -18 -298 -16 -44 -21 -50 -49 -53 l-32 -3 0 300 0 301 50 0 50 0 -1
-247z m799 80 l-3 -168 -92 -3 -93 -3 0 171 0 170 95 0 95 0 -2 -167z m-1148
-3 l0 -130 -55 0 -55 0 0 130 0 130 55 0 55 0 0 -130z m950 0 l0 -130 -55 0
-55 0 0 130 0 130 55 0 55 0 0 -130z m-3176 94 c9 -4 17 -19 17 -38 2 -30 2
-30 6 -3 3 18 10 27 23 27 10 0 22 5 25 10 3 6 15 10 26 10 15 0 19 -7 20 -37
l2 -38 6 35 c4 22 12 36 24 38 14 3 17 -4 18 -35 l2 -38 6 35 6 35 70 0 70 0
6 -35 6 -35 2 38 c1 30 5 37 21 37 16 0 20 -7 21 -32 2 -32 2 -32 6 -5 5 31
28 46 46 28 6 -6 19 -11 28 -11 10 0 19 -10 22 -22 4 -21 4 -20 6 3 2 52 60
47 62 -5 2 -30 2 -30 6 -3 3 21 10 27 29 27 13 0 24 -6 25 -12 1 -7 2 -149 3
-315 l1 -303 -360 0 -360 0 2 288 c1 158 2 299 2 315 1 22 6 27 25 27 19 0 26
-6 29 -27 4 -27 4 -27 6 4 0 17 7 34 14 36 6 3 13 6 14 6 1 1 8 -2 17 -5z
m2106 -89 l0 -85 -89 0 -89 0 0 85 0 85 89 0 89 0 0 -85z m-190 -5 l0 -71 -72
3 -73 3 -3 68 -3 67 76 0 75 0 0 -70z m-325 -195 c83 -18 194 -69 268 -123
263 -195 352 -561 208 -857 -73 -150 -178 -255 -326 -325 -401 -192 -872 34
-976 466 -37 156 -17 332 56 474 117 231 355 378 610 379 50 0 121 -6 160 -14z
m1235 -110 l0 -125 -60 0 -60 0 0 125 0 125 60 0 60 0 0 -125z m238 3 l-3
-123 -62 -3 -63 -3 0 126 0 125 65 0 66 0 -3 -122z m-3478 47 l0 -35 -110 0
-110 0 0 35 0 35 110 0 110 0 0 -35z m3905 -32 l65 -38 0 -80 0 -80 -62 -35
c-35 -19 -66 -36 -70 -38 -4 -2 -36 14 -72 35 l-66 38 0 82 0 81 63 36 c34 19
66 35 70 36 5 0 37 -17 72 -37z m-3789 -130 l84 -48 0 -92 0 -93 -77 -45 c-43
-25 -83 -45 -89 -45 -6 0 -45 19 -87 43 l-77 42 0 95 0 95 78 47 c42 25 79 47
81 47 2 1 41 -20 87 -46z m3035 -115 l59 -33 -2 -84 -3 -85 -64 -37 -63 -37
-69 40 -69 40 0 78 0 79 63 35 c34 20 68 36 75 36 7 0 40 -15 73 -32z m569
-114 c6 -15 20 -64 31 -110 19 -76 24 -84 45 -84 41 0 64 -97 25 -107 -18 -5
-18 -9 10 -111 16 -59 29 -113 29 -119 0 -21 -21 -15 -27 8 -3 12 -9 16 -12
10 -4 -6 -92 -23 -197 -38 l-189 -28 -3 -62 -3 -63 206 0 c176 0 205 -2 205
-15 0 -13 -39 -15 -291 -15 -228 0 -290 3 -287 13 3 7 26 13 56 15 l52 3 0 60
0 60 -37 -6 c-21 -4 -46 -9 -55 -11 -13 -4 -20 5 -28 38 -6 24 -30 110 -52
191 -22 82 -38 150 -36 151 3 3 332 140 471 196 31 13 57 30 57 37 0 23 20 14
30 -13z m-3120 -56 c244 -74 387 -322 325 -561 -56 -216 -236 -357 -456 -357
-217 0 -398 142 -454 357 -58 221 70 465 285 547 93 35 212 41 300 14z m3570
-98 l68 -39 1 -76 c2 -84 6 -78 -104 -136 l-40 -21 -67 39 -68 38 0 77 0 77
68 40 c37 23 68 41 70 41 2 0 34 -18 72 -40z m-1294 -26 c4 -26 2 -61 -4 -80
-6 -19 -6 -34 -1 -34 5 0 9 -22 9 -49 0 -42 5 -54 36 -87 26 -29 35 -47 33
-69 -1 -16 2 -38 6 -47 12 -29 -2 -48 -37 -49 l-33 -2 35 -6 c27 -5 36 -11 38
-30 2 -15 -3 -30 -12 -37 -15 -10 -15 -12 -1 -18 17 -6 20 -37 4 -53 -8 -8 -7
-17 3 -32 10 -17 10 -25 0 -41 -8 -13 -9 -20 -1 -20 7 0 9 -27 7 -80 -3 -76
-2 -80 19 -80 35 0 53 -11 53 -31 0 -18 -10 -19 -170 -19 l-170 0 0 -45 0 -45
-95 0 -95 0 0 40 0 40 40 0 c36 0 40 3 40 24 0 24 16 36 51 36 17 0 19 8 19
80 0 69 2 80 18 80 16 1 16 1 0 11 -21 12 -23 40 -6 57 9 9 9 15 0 24 -17 17
-15 47 3 54 14 6 14 8 -1 19 -22 15 -11 65 14 66 13 0 11 3 -5 9 -22 9 -31 39
-16 54 4 4 6 21 5 39 -2 25 5 41 32 71 31 33 36 45 36 87 0 27 4 49 9 49 6 0
6 12 -1 31 -9 27 -5 100 8 121 3 4 32 8 64 8 l59 0 7 -46z m2314 -74 l0 -70
-30 0 -29 0 -3 -107 -3 -108 -72 -3 -72 -3 2 111 2 110 -32 0 -33 0 0 70 0 70
135 0 135 0 0 -70z m-580 -123 c111 -26 194 -83 258 -178 55 -82 75 -215 48
-317 -28 -104 -112 -210 -200 -252 -88 -42 -213 -57 -290 -34 -88 26 -236 138
-236 179 0 8 -3 15 -7 15 -5 0 -17 21 -28 48 -16 37 -20 69 -20 152 0 103 1
107 38 175 78 144 218 227 367 219 30 -2 62 -5 70 -7z m-4712 -271 l62 -37 0
-79 0 -79 -63 -36 c-35 -19 -69 -35 -75 -35 -6 0 -38 16 -71 36 l-61 36 0 79
0 78 67 40 c37 22 69 39 72 37 3 -2 34 -20 69 -40z m5380 0 l62 -37 0 -79 0
-78 -68 -40 -69 -39 -67 39 -67 39 3 82 3 81 65 37 c35 21 67 36 70 35 3 -2
33 -20 68 -40z m-4168 -184 l0 -38 126 1 c69 0 130 -2 135 -6 6 -3 9 -42 7
-90 l-3 -84 -132 0 -133 1 0 -38 0 -38 -80 0 -80 0 0 165 0 165 80 0 80 0 0
-38z m2810 -197 l0 -45 -290 0 -290 0 0 45 0 45 290 0 290 0 0 -45z m-4089
-30 c15 -42 18 -88 18 -282 l1 -233 -50 0 -50 0 0 286 0 285 32 -3 c28 -3 33
-9 49 -53z m5347 -62 l-3 -118 -57 -3 -58 -3 0 121 0 120 61 0 61 0 -4 -117z
m222 -3 l0 -121 -57 3 -58 3 -3 118 -3 117 61 0 60 0 0 -120z m-5660 -45 l0
-125 -55 0 -55 0 0 125 0 125 55 0 55 0 0 -125z m3170 75 l0 -40 -105 0 -105
0 0 40 0 40 105 0 105 0 0 -40z m200 0 l0 -40 -95 0 -95 0 0 40 0 40 95 0 95
0 0 -40z m-809 -84 c-18 -19 -21 -35 -21 -104 l0 -82 -35 0 -35 0 0 97 0 97
53 54 52 53 3 -47 c3 -36 -1 -51 -17 -68z m1617 62 c3 -17 -16 -18 -287 -18
-285 0 -291 0 -291 20 0 20 5 20 287 18 265 -3 288 -4 291 -20z m-888 -53 l0
-25 -225 0 -225 0 0 25 0 25 225 0 225 0 0 -25z m888 -7 c3 -17 -16 -18 -287
-18 -285 0 -291 0 -291 20 0 20 5 20 287 18 265 -3 288 -4 291 -20z m358 -44
l65 -36 -3 -81 -3 -81 -67 -38 -66 -39 -64 39 -63 39 -3 81 -3 80 63 36 c35
20 67 36 71 36 5 0 38 -16 73 -36z m-1217 -108 c-1 -136 -11 -166 -55 -166
-15 0 -24 -6 -24 -15 0 -8 -10 -16 -22 -16 l-23 -2 23 -4 c40 -8 26 -33 -20
-35 l-43 -1 41 -4 41 -4 0 -70 c-1 -55 -4 -69 -17 -70 -11 -1 -11 -2 3 -6 28
-7 20 -33 -10 -34 l-28 -2 28 -4 c39 -6 35 -33 -5 -35 l-33 -1 33 -4 c18 -3
32 -10 32 -18 0 -10 -28 -15 -107 -20 -158 -9 -163 -12 -24 -14 l124 -1 -6
-52 c-10 -100 -41 -135 -127 -145 -64 -7 -81 6 -78 61 2 30 -1 40 -10 38 -8
-1 -16 7 -19 18 -4 16 -14 20 -44 20 -43 0 -44 1 -53 53 -7 36 -6 37 26 39
l33 1 -32 4 c-53 7 -42 33 15 35 l47 2 -46 3 -47 4 1 67 c0 37 5 70 11 74 8 5
7 8 -1 8 -23 0 -14 30 10 31 l22 2 -22 4 c-13 2 -23 11 -23 19 0 10 14 15 48
16 l47 2 -47 3 c-32 3 -48 9 -48 18 0 10 27 15 108 20 152 9 148 13 -16 14
l-143 1 -15 35 c-9 23 -14 71 -14 145 l0 110 255 0 256 0 -2 -124z m856 -76
l0 -185 -49 -3 c-39 -3 -62 3 -105 25 -40 20 -74 29 -124 31 -60 4 -75 1 -131
-27 -46 -22 -78 -31 -115 -31 l-51 0 0 190 0 190 288 -2 287 -3 0 -185z
m-2132 160 c4 -15 14 -20 41 -20 34 0 36 -2 36 -34 0 -36 -12 -46 -56 -46
l-24 0 0 -279 0 -280 38 -3 c35 -3 37 -5 40 -40 l3 -38 -40 0 c-34 0 -41 -3
-41 -20 0 -20 -7 -20 -665 -20 -658 0 -665 0 -665 20 0 16 -7 20 -35 20 -34 0
-35 1 -35 40 0 39 1 40 35 40 l35 0 0 283 0 282 -32 0 c-31 0 -33 2 -36 38 -3
36 -3 37 32 37 29 0 36 4 36 20 0 20 7 20 664 20 655 0 664 0 669 -20z m-1623
-170 l0 -160 -90 0 -90 0 0 160 0 160 90 0 90 0 0 -160z m5010 -125 l0 -285
-33 0 c-32 0 -34 2 -55 68 -15 46 -22 94 -22 144 l0 76 -55 -1 -55 -2 0 128 0
129 55 -4 c47 -3 55 0 55 15 0 14 9 17 55 17 l55 0 0 -285z m230 268 c0 -15 8
-18 55 -15 l55 4 0 -126 0 -126 -55 0 -55 0 0 -77 c0 -52 -7 -99 -22 -145 -21
-66 -23 -68 -55 -68 l-33 0 0 285 0 285 55 0 c46 0 55 -3 55 -17z m-5435 -143
l0 -125 -52 -3 -53 -3 0 131 0 131 53 -3 52 -3 0 -125z m4975 0 l0 -80 -85 0
c-84 0 -85 0 -85 25 0 24 2 25 70 25 l70 0 -1 33 c-2 30 -2 30 -6 5 -4 -27 -6
-28 -69 -28 l-64 0 0 50 0 50 85 0 85 0 0 -80z m-182 3 l3 -63 -73 0 -73 0 3
65 4 66 66 -3 67 -3 3 -62z m-2443 -228 l0 -260 -140 0 -140 0 -3 250 c-1 137
0 255 3 263 3 10 37 12 142 10 l138 -3 0 -260z m2965 -20 l0 -125 -50 0 -50 0
0 125 0 125 50 0 50 0 0 -125z m-1592 109 c21 -6 22 -12 22 -88 0 -164 47
-406 92 -472 22 -32 23 -33 28 -11 5 17 14 22 42 23 34 2 36 0 42 -35 3 -20 6
-66 6 -103 l0 -68 -40 0 c-39 0 -40 1 -51 44 -54 214 -360 202 -413 -16 -6
-25 -11 -28 -46 -28 l-40 0 1 73 c2 117 8 131 52 135 32 3 37 0 37 -17 0 -55
42 0 70 92 33 108 51 228 51 349 1 111 2 117 23 121 34 7 99 7 124 1z m-3828
-154 l0 -120 -60 0 -60 0 0 120 0 120 60 0 60 0 0 -120z m4350 50 c0 -34 -6
-32 120 -34 l95 -1 3 -75 3 -76 -110 1 -110 1 -3 -31 -3 -30 -65 0 -65 0 -3
138 -3 137 71 0 70 0 0 -30z m-895 -67 l65 -37 0 -78 0 -77 -70 -41 -70 -41
-70 41 -70 41 0 77 0 77 63 37 c34 20 68 37 75 38 7 0 42 -17 77 -37z m-3119
-55 l74 -43 0 -96 0 -96 -81 -47 -80 -47 -80 46 -79 47 0 97 0 97 73 42 c39
23 78 42 86 42 8 0 47 -19 87 -42z m4653 -158 c22 -80 40 -137 40 -127 1 14 6
17 24 12 30 -10 33 -13 45 -65 9 -37 8 -47 -5 -62 -20 -23 -33 -23 -33 -1 0 9
-2 14 -5 11 -3 -3 12 -72 34 -153 22 -82 38 -152 35 -157 -10 -16 -24 -8 -30
17 -5 21 -8 23 -18 12 -7 -9 -84 -24 -216 -41 -113 -16 -217 -30 -232 -33 -28
-5 -28 -6 -28 -84 l0 -79 252 -2 c190 -2 252 -6 256 -15 3 -10 -73 -13 -357
-13 -314 0 -361 2 -361 15 0 12 14 15 65 15 l65 0 0 75 0 76 -52 -7 c-29 -4
-59 -8 -67 -8 -10 -1 -31 59 -72 214 -32 118 -59 223 -61 233 -2 15 39 36 237
118 132 55 279 116 327 136 61 26 88 43 92 57 10 37 24 5 65 -144z m-2639 -90
l0 -110 -35 0 -35 0 0 110 0 110 35 0 35 0 0 -110z m366 44 l65 -36 -3 -81 -3
-81 -66 -38 -67 -38 -66 37 -66 38 0 82 0 81 63 36 c34 19 66 35 70 36 5 0 38
-16 73 -36z m2668 -31 l66 -38 -2 -80 -3 -80 -66 -38 -66 -38 -67 36 -66 37 0
83 0 84 63 35 c34 20 65 36 68 36 4 0 37 -17 73 -37z m-4474 -268 l0 -85 -35
0 c-26 0 -35 -4 -36 -17 -1 -10 -2 -65 -3 -123 -2 -58 -3 -111 -4 -118 -2 -11
-21 -13 -84 -9 l-83 4 0 132 0 131 -37 0 -38 0 0 85 0 85 160 0 160 0 0 -85z
m2388 -57 l-3 -83 -38 2 c-22 1 -35 -3 -31 -8 3 -6 1 -16 -6 -24 -6 -8 -7 -16
-2 -19 6 -3 7 -20 2 -40 -4 -19 -5 -38 -1 -44 8 -13 6 -106 -3 -120 -5 -8 -38
-12 -90 -12 l-82 0 0 133 1 132 -37 3 -38 3 0 80 0 79 165 0 166 0 -3 -82z
m-1698 -3 l0 -45 -275 0 -275 0 0 45 0 45 275 0 275 0 0 -45z m1954 13 c2 -7
9 -31 15 -53 11 -44 57 -97 105 -123 19 -10 55 -16 91 -17 103 0 188 70 210
173 6 29 10 32 46 32 l39 0 0 -131 c0 -139 -6 -159 -50 -159 -28 0 -48 20 -52
54 l-3 28 -28 -22 c-80 -63 -222 -66 -311 -5 l-36 24 0 -29 c0 -20 -5 -30 -15
-30 -8 0 -15 -4 -15 -10 0 -5 -11 -10 -25 -10 -14 0 -25 5 -25 10 0 6 -7 10
-15 10 -13 0 -15 22 -15 135 l0 135 40 0 c24 0 42 -5 44 -12z m-1543 -70 l2
-43 6 35 c6 36 24 46 94 49 25 1 27 -2 29 -41 l1 -43 4 43 c4 37 7 42 29 42
21 0 24 -5 26 -42 l1 -43 4 43 4 42 95 0 94 0 2 -42 1 -43 4 43 c4 40 6 43 31
40 22 -2 28 -9 33 -38 l6 -35 2 39 1 39 38 -7 c20 -3 45 -6 54 -6 12 0 18 -11
21 -37 l4 -38 1 43 2 43 38 -3 c35 -3 37 -5 43 -43 l6 -40 2 38 c1 37 2 38 33
35 l33 -3 3 -72 3 -73 -455 0 -456 0 0 23 c0 12 3 46 7 75 6 52 6 53 37 50 27
-3 32 -8 37 -38 l6 -35 2 43 c1 41 2 42 36 42 34 0 35 -1 36 -42z m-411 -23
c0 -13 -37 -15 -275 -15 -238 0 -275 2 -275 15 0 13 37 15 275 15 238 0 275
-2 275 -15z m0 -60 c0 -13 -37 -15 -275 -15 -238 0 -275 2 -275 15 0 13 37 15
275 15 238 0 275 -2 275 -15z m0 -215 l0 -180 -52 0 c-35 0 -68 8 -106 27 -75
36 -158 36 -231 -1 -38 -18 -68 -26 -107 -26 l-54 0 0 173 c0 96 3 176 6 180
3 3 127 6 275 7 l269 0 0 -180z m1155 -115 l0 -280 -447 -3 -448 -2 0 285 0
285 448 -2 447 -3 0 -280z m1145 59 l80 -46 0 -93 0 -93 -81 -47 c-44 -26 -87
-44 -95 -41 -9 3 -46 24 -85 46 l-69 41 0 94 0 93 78 46 c42 25 81 45 85 46 4
0 44 -21 87 -46z m-3084 -173 c-24 -25 -26 -34 -26 -119 l0 -92 -40 0 -40 0 0
105 0 104 63 60 62 60 3 -46 c3 -38 -1 -50 -22 -72z m578 83 c13 -5 16 -24 16
-108 0 -121 21 -256 54 -356 27 -78 46 -102 58 -71 4 13 16 18 40 17 39 -2 45
-19 47 -128 l1 -68 -40 0 c-37 0 -40 2 -50 40 -28 105 -143 169 -250 140 -59
-16 -124 -81 -139 -138 -11 -40 -13 -42 -51 -42 l-40 0 0 69 c0 39 5 73 10 76
6 3 10 16 10 28 0 19 5 23 32 22 20 0 33 -7 37 -19 6 -16 7 -16 23 1 24 28 33
51 56 138 27 102 46 272 39 341 -4 36 -2 54 6 58 18 7 123 7 141 0z m2144 -41
l3 -33 -290 0 -291 0 0 35 0 35 288 -2 287 -3 3 -32z m1710 -40 c-3 -67 -3
-68 -33 -73 l-31 -5 1 -95 c1 -52 -1 -101 -3 -107 -3 -9 -27 -13 -76 -13 l-72
0 1 108 1 107 -31 5 c-30 5 -30 6 -33 73 l-3 67 141 0 141 0 -3 -67z m-2128
-263 c0 -225 -6 -290 -24 -244 -8 21 -8 489 0 497 20 19 24 -27 24 -253z m158
-3 c-2 -154 -7 -248 -13 -250 -11 -2 -20 476 -10 502 4 9 9 11 16 4 6 -6 8
-104 7 -256z m160 0 c-2 -154 -7 -248 -13 -250 -11 -2 -20 476 -10 502 4 9 9
11 16 4 6 -6 8 -104 7 -256z m1192 186 c15 -19 17 -28 9 -34 -8 -4 -3 -8 12
-11 13 -1 24 -10 24 -18 0 -9 -7 -14 -19 -12 -10 2 -15 -1 -12 -7 7 -11 -103
-71 -131 -71 -17 0 -18 -15 -14 -241 l3 -242 -40 -36 c-35 -30 -41 -43 -44
-81 -2 -25 -6 -44 -10 -42 -5 1 -37 2 -73 2 l-65 0 0 45 0 45 -105 0 -105 0 0
275 0 275 145 0 145 0 2 -277 3 -278 2 248 c3 239 4 247 23 247 16 0 20 7 20
30 0 23 -4 30 -20 30 -11 0 -49 15 -83 33 l-62 32 200 6 200 5 -208 1 c-115 1
-211 4 -215 7 -3 4 4 15 16 27 12 11 29 31 38 44 16 25 17 25 179 25 l164 0
21 -27z m-2504 -113 c8 -8 19 -7 37 1 21 9 30 9 41 0 11 -10 20 -10 37 -1 17
9 27 9 47 -1 20 -11 26 -11 29 -1 6 15 35 16 50 1 8 -8 17 -7 32 3 17 11 25
11 42 0 15 -10 24 -11 32 -3 7 7 63 11 149 11 l138 0 0 -25 0 -24 -257 -3
c-142 -2 -347 -2 -455 0 l-198 2 0 25 0 25 133 0 c79 0 137 -4 143 -10z
m-1298 -42 c17 -17 17 -559 0 -576 -13 -13 -262 -18 -292 -6 -14 5 -16 41 -16
293 0 158 3 291 7 294 12 13 288 8 301 -5z m3222 -273 c0 -188 -3 -275 -11
-275 -6 0 -20 5 -32 12 -12 7 -47 11 -79 9 -76 -4 -98 9 -98 57 0 48 14 62 62
62 40 0 45 9 32 55 -4 17 -12 20 -60 17 -71 -5 -104 15 -104 61 0 48 15 57 91
57 71 0 79 6 79 53 0 18 -6 22 -35 23 -45 1 -65 19 -65 58 0 46 16 56 86 56
35 0 74 6 90 15 16 8 32 15 37 15 4 0 7 -124 7 -275z m500 162 c0 -64 14 -75
90 -74 l55 1 3 -93 3 -93 -61 4 c-33 1 -60 0 -60 -4 0 -5 -7 -8 -15 -8 -12 0
-15 -13 -15 -55 0 -48 -2 -55 -20 -55 -19 0 -20 7 -20 215 0 208 1 215 20 215
17 0 20 -7 20 -53z m-4190 -25 l65 -38 3 -80 3 -79 -68 -39 -67 -39 -64 34
c-70 37 -76 45 -74 96 0 18 1 50 1 71 1 35 5 40 64 74 34 21 64 37 67 37 3 0
34 -16 70 -37z m2004 1 l66 -38 -2 -83 -3 -83 -66 -37 -66 -36 -66 39 -67 39
0 81 1 80 62 36 c34 21 65 37 68 38 4 1 37 -16 73 -36z m2436 -138 l0 -155
-45 0 -45 0 0 155 0 155 45 0 45 0 0 -155z m-2027 108 l66 -38 1 -77 0 -77
-69 -41 -70 -42 -71 42 -71 41 3 76 3 76 60 38 c33 21 65 38 71 38 6 1 41 -16
77 -36z m2127 -12 c0 -14 7 -16 36 -13 28 3 36 1 40 -14 4 -17 14 -19 84 -16
44 2 80 8 80 13 0 5 5 9 11 9 5 0 7 -6 3 -12 -6 -10 -4 -10 7 -2 14 11 49 15
49 6 0 -3 -8 -15 -17 -26 -18 -21 -18 -21 3 -3 12 10 37 17 62 17 l42 0 0 -55
0 -55 -51 0 c-27 0 -48 -4 -45 -9 3 -5 -10 -8 -29 -8 -19 1 -35 4 -35 8 0 4
-36 9 -80 11 -71 3 -80 1 -80 -14 0 -14 -9 -18 -39 -18 -30 0 -40 -4 -44 -19
-4 -16 -13 -20 -46 -19 l-41 0 0 119 c0 99 3 119 15 119 12 0 15 -20 17 -112
l2 -113 3 112 c3 96 6 112 21 116 23 5 32 -1 32 -22z m-2879 -127 c15 -41 17
-66 7 -103 -7 -22 -6 -37 1 -44 6 -6 11 -28 11 -49 0 -28 10 -53 35 -89 41
-60 44 -79 13 -80 l-23 0 23 -9 c23 -10 31 -53 11 -66 -8 -4 -8 -9 0 -17 15
-15 14 -57 -1 -57 -9 0 -9 -3 0 -12 15 -15 16 -68 1 -68 -8 0 -8 -5 1 -15 7
-8 10 -26 8 -40 -3 -14 -1 -28 3 -31 5 -3 9 -36 9 -75 l0 -69 -47 -1 c-41 -1
-37 -3 26 -10 80 -9 97 -18 88 -43 -6 -14 -36 -16 -232 -16 l-226 0 3 22 c2
17 12 24 33 28 l30 5 3 83 c2 45 7 82 12 82 6 0 5 9 -2 19 -10 16 -9 23 4 38
14 16 14 20 1 32 -8 8 -11 20 -7 30 9 20 9 42 0 62 -4 10 -1 23 8 32 14 13 14
16 1 27 -21 18 -19 36 7 54 18 13 19 16 5 16 -27 0 -20 33 18 83 28 37 35 55
35 91 0 24 5 46 10 48 7 2 7 15 0 38 -7 24 -7 49 1 83 l11 47 54 0 c50 0 55
-2 65 -26z m1517 -26 l-3 -33 -287 -3 -288 -2 0 35 0 35 291 0 290 0 -3 -32z
m-2409 -123 c21 -85 110 -155 196 -155 86 0 175 70 196 155 11 44 13 45 50 45
l39 0 0 -126 c0 -134 -7 -154 -50 -154 -29 0 -50 23 -50 54 l0 25 -36 -24
c-88 -60 -210 -60 -298 0 l-36 24 0 -25 c0 -14 -6 -32 -14 -40 -17 -16 -56
-19 -56 -4 0 6 -6 10 -14 10 -12 0 -15 23 -15 121 -1 66 1 125 5 130 3 5 20 9
38 9 31 0 34 -3 45 -45z m2532 -25 l69 -41 0 -77 0 -77 -66 -38 c-74 -43 -79
-43 -169 14 l-45 29 0 74 0 74 68 40 c37 23 68 41 70 42 2 0 35 -18 73 -40z
m-3541 -25 l0 -55 -105 1 -105 0 0 55 0 54 105 0 105 0 0 -55z m5235 -13 l80
-48 3 -91 3 -92 -78 -45 c-43 -25 -83 -46 -89 -46 -6 0 -45 19 -87 43 l-77 42
0 96 0 96 78 46 c42 25 79 46 82 46 3 1 41 -21 85 -47z m-2845 -72 l0 -70 -31
0 -30 0 1 -77 c1 -43 1 -93 1 -110 l-1 -33 -74 0 -74 0 2 110 2 110 -33 0 -33
0 0 70 0 70 135 0 135 0 0 -70z m2260 -8 l0 -28 98 1 c53 0 103 -1 110 -3 8
-3 12 -27 12 -77 l0 -72 -110 1 -110 2 0 -33 0 -33 -70 0 -70 0 0 135 0 135
70 0 c70 0 70 0 70 -28z m-4060 -127 l0 -125 -35 0 -35 0 0 125 0 125 35 0 35
0 0 -125z m-210 -102 l0 -82 -67 -37 -66 -38 -66 36 -66 37 -3 80 -3 80 68 39
68 40 67 -37 68 -36 0 -82z m1053 -9 l77 -45 0 -93 0 -94 -78 -46 c-43 -25
-82 -46 -86 -46 -4 0 -43 21 -86 46 l-80 46 0 93 0 94 78 45 c42 24 82 45 87
45 6 0 45 -20 88 -45z m-1043 -241 c0 -13 3 -14 12 -5 7 7 29 12 50 12 36 0
38 -2 38 -30 0 -24 -4 -30 -22 -31 l-23 -2 23 -4 c18 -4 22 -11 22 -39 0 -33
-1 -34 -39 -34 -22 0 -42 6 -45 13 -5 9 -7 9 -12 0 -3 -7 -23 -13 -45 -13 -38
0 -39 1 -39 35 0 34 1 35 39 35 22 0 41 -4 43 -8 2 -4 14 -2 28 5 22 11 23 13
5 14 -11 1 -41 1 -67 -1 l-48 -2 0 36 c0 35 1 36 40 36 31 0 40 -4 40 -17z"/>
<path d="M99 5792 c-47 -39 -17 -122 45 -122 37 0 49 7 65 37 17 33 14 51 -14
78 -29 30 -64 32 -96 7z"/>
<path d="M2745 5775 c-26 -25 -29 -35 -19 -72 7 -25 58 -53 85 -46 32 9 61 53
54 83 -14 58 -78 78 -120 35z"/>
<path d="M3930 5782 c-52 -16 -68 -85 -28 -122 58 -54 146 19 108 90 -11 20
-58 39 -80 32z"/>
<path d="M5575 5285 c-29 -28 -31 -51 -9 -83 21 -30 53 -41 85 -30 52 18 60
92 13 122 -33 23 -61 20 -89 -9z"/>
<path d="M4963 5165 c-163 -36 -292 -162 -334 -328 -6 -26 -10 -50 -7 -52 2
-2 70 5 152 16 82 11 151 18 153 15 3 -2 0 -13 -6 -24 -14 -26 -14 -73 -1
-108 6 -15 9 -28 8 -29 -2 -1 -64 6 -138 16 -184 25 -172 26 -164 -18 19 -113
116 -245 222 -301 51 -27 141 -56 149 -48 2 2 -4 69 -13 150 -9 81 -14 149
-12 151 2 3 21 -1 42 -7 28 -9 48 -9 79 -1 23 6 44 10 46 7 4 -4 -16 -230 -26
-278 -5 -27 -4 -28 28 -21 113 22 252 127 302 228 30 59 54 143 45 153 -4 3
-73 -3 -155 -14 -81 -10 -149 -19 -150 -18 -1 1 4 20 10 44 8 30 8 53 0 82 -5
22 -7 40 -4 40 4 0 72 -9 151 -20 79 -11 146 -20 148 -20 12 0 -12 92 -38 148
-56 119 -171 209 -309 238 -79 16 -98 16 -178 -1z m156 -313 c97 -52 89 -185
-13 -236 -49 -24 -99 -15 -142 28 -63 63 -52 160 24 204 46 27 87 28 131 4z"/>
<path d="M2733 4581 c-24 -38 -43 -73 -43 -77 1 -5 16 -26 35 -48 l34 -38 61
57 c33 32 60 61 60 65 0 10 -90 110 -98 110 -4 0 -26 -31 -49 -69z m109 -3
l30 -39 -56 -55 -57 -56 -30 38 c-34 43 -34 40 16 118 41 64 41 64 97 -6z"/>
<path d="M2200 4601 c-94 -29 -236 -129 -213 -151 8 -9 2 -27 -28 -73 -21 -33
-39 -66 -39 -74 0 -8 -8 -13 -17 -11 -13 2 -21 -9 -31 -47 -22 -84 -1 -268 29
-249 6 3 16 0 21 -7 7 -10 8 -9 3 6 -75 228 35 470 252 556 47 19 77 23 163
23 98 0 110 -2 171 -32 200 -96 297 -300 244 -507 -39 -151 -169 -278 -322
-314 -21 -5 -32 -9 -25 -10 6 -1 12 -8 12 -16 0 -19 5 -19 73 4 91 32 211 121
190 142 -8 8 0 28 28 72 21 33 39 66 39 74 0 9 6 12 19 8 15 -5 20 3 30 51 14
72 14 126 0 198 -10 47 -15 55 -29 51 -13 -4 -19 1 -24 19 -3 13 -21 47 -40
75 -29 43 -32 52 -19 59 12 7 5 17 -34 50 -78 68 -233 134 -233 100 0 -10 -21
-13 -85 -13 -61 0 -85 3 -85 13 0 13 -12 14 -50 3z"/>
<path d="M1851 3815 c-34 -32 -61 -61 -61 -65 0 -10 97 -116 102 -110 18 22
88 138 88 146 -1 5 -16 27 -34 48 l-34 39 -61 -58z m119 -29 c0 -9 -79 -136
-85 -136 -2 0 -22 23 -45 51 l-43 50 57 56 58 55 28 -33 c16 -19 29 -38 30
-43z"/>
<path d="M2587 3714 l-38 -25 17 -27 c9 -15 31 -45 47 -67 17 -22 32 -42 34
-44 3 -5 99 57 112 73 8 10 -3 25 -48 65 -33 28 -65 51 -73 50 -7 0 -30 -11
-51 -25z m117 -31 l57 -48 -25 -20 c-14 -11 -39 -28 -56 -38 l-29 -18 -46 62
c-25 34 -43 64 -40 67 12 13 61 41 71 41 7 1 37 -20 68 -46z"/>
<path d="M4265 4665 c-28 -27 -30 -42 -14 -79 26 -56 105 -53 129 3 31 75 -58
133 -115 76z"/>
<path d="M475 4538 c-32 -17 -45 -39 -45 -78 0 -77 97 -114 147 -55 32 37 30
80 -6 116 -31 30 -62 36 -96 17z"/>
<path d="M3518 4428 c-40 -33 -39 -96 2 -118 48 -26 110 9 110 61 0 53 -71 89
-112 57z"/>
<path d="M857 4239 c-131 -31 -256 -162 -283 -298 -8 -37 -12 -37 146 -16 62
8 115 14 116 12 2 -2 -2 -19 -8 -39 -8 -26 -8 -44 1 -69 6 -18 10 -33 9 -34
-3 -2 -143 16 -232 30 l-38 6 7 -38 c11 -61 50 -138 95 -187 65 -71 231 -146
229 -103 0 6 -6 66 -13 132 -7 66 -13 121 -12 122 1 1 20 -4 44 -10 32 -8 50
-8 74 1 17 6 33 11 34 9 1 -1 -5 -58 -12 -127 -7 -69 -13 -128 -14 -132 0 -18
52 -6 117 27 110 55 192 161 210 270 l6 36 -39 -6 c-82 -13 -229 -32 -231 -31
-1 1 3 18 9 38 8 26 8 44 -1 69 -6 18 -9 34 -7 36 2 2 60 -4 130 -13 69 -9
129 -14 133 -10 13 13 -39 144 -76 189 -95 117 -249 170 -394 136z m163 -279
c34 -24 54 -78 45 -120 -9 -40 -67 -90 -106 -90 -48 0 -94 27 -112 66 -21 43
-21 57 -1 100 30 63 117 84 174 44z"/>
<path d="M4535 4159 c-35 -28 -35 -80 1 -108 15 -12 34 -21 44 -21 31 0 70 39
70 70 0 61 -67 96 -115 59z"/>
<path d="M4903 3869 c-61 -24 -123 -82 -155 -147 -31 -65 -31 -169 0 -233 66
-135 214 -200 352 -154 93 31 191 148 189 225 0 16 -5 9 -13 -22 -54 -199
-290 -274 -445 -141 -128 109 -128 307 0 416 102 88 255 89 357 1 45 -38 92
-123 92 -165 0 -15 4 -30 9 -33 5 -3 5 14 0 39 -33 177 -217 279 -386 214z"/>
<path d="M251 3654 c-12 -15 -21 -34 -21 -44 0 -32 39 -70 71 -70 34 0 79 39
79 68 0 35 -38 72 -75 72 -24 0 -39 -7 -54 -26z"/>
<path d="M5631 3654 c-12 -15 -21 -34 -21 -44 0 -33 39 -70 74 -70 60 0 93 66
56 113 -29 37 -80 37 -109 1z"/>
<path d="M4635 3085 c-30 -30 -31 -54 -4 -89 42 -53 122 -23 122 46 0 62 -73
89 -118 43z"/>
<path d="M1194 3092 c-57 -20 -123 -68 -155 -114 -14 -20 -28 -28 -40 -25 -10
3 -25 -4 -35 -14 -14 -16 -15 -22 -4 -32 10 -9 11 -9 6 1 -4 7 -2 19 4 27 15
18 22 14 129 -65 l82 -60 38 40 c33 35 43 40 82 40 32 0 74 14 156 51 l112 52
-42 32 c-77 59 -126 78 -207 82 -55 3 -89 -1 -126 -15z m199 -13 c43 -11 45
-22 21 -95 -22 -66 -44 -84 -106 -84 -45 0 -54 -4 -90 -40 l-40 -40 -61 47
c-92 73 -92 74 -24 140 56 54 58 55 77 38 11 -10 34 -41 52 -69 l33 -51 3 83
3 82 47 0 c26 0 64 -5 85 -11z"/>
<path d="M1606 2965 c-10 -8 -23 -16 -29 -18 -5 -1 -3 -17 7 -36 10 -18 16
-39 14 -48 -2 -9 -33 -28 -72 -43 l-68 -28 76 -16 c70 -16 76 -19 76 -43 0
-25 -48 -143 -58 -143 -3 0 -34 16 -69 35 -35 19 -66 35 -68 35 -3 0 8 -27 25
-60 16 -33 30 -66 30 -74 0 -8 -22 -23 -52 -34 l-53 -20 -7 22 c-4 13 -6 5 -6
-24 0 -25 2 -37 5 -27 2 9 12 17 21 17 71 1 206 119 236 206 22 66 21 171 -4
233 -19 50 -19 50 0 56 11 4 20 11 20 16 0 12 -1 11 -24 -6z"/>
<path d="M1872 2959 c-41 -16 -107 -68 -125 -98 -17 -29 -17 -30 15 -52 22
-15 28 -17 19 -6 -17 21 -11 21 36 2 19 -8 37 -15 39 -15 2 0 -12 22 -32 50
-19 27 -33 54 -29 60 4 6 29 22 57 36 59 30 63 27 88 -47 l18 -53 12 45 c19
75 21 79 35 79 20 0 102 -37 109 -49 4 -6 2 -20 -4 -31 -12 -23 -5 -25 29 -6
l24 13 -35 26 c-19 15 -51 33 -71 42 -40 17 -148 19 -185 4z"/>
<path d="M983 2882 c-1 -10 -4 -42 -8 -73 -13 -98 36 -216 117 -284 41 -35
102 -61 168 -73 l50 -9 0 34 c0 18 -4 41 -9 51 -6 9 -13 35 -16 57 l-7 40 -30
-67 c-36 -80 -48 -83 -119 -37 -76 48 -76 49 -17 119 36 43 46 61 32 57 -79
-22 -126 -29 -136 -19 -6 6 -13 44 -16 85 -5 82 4 95 53 77 36 -14 31 -5 -18
29 -35 24 -43 26 -44 13z"/>
<path d="M1670 2849 c-10 -17 -7 -23 14 -40 22 -17 24 -24 19 -73 -13 -121 65
-235 184 -271 53 -16 62 -22 65 -44 2 -19 9 -26 26 -27 20 -2 20 -1 1 3 -19 4
-21 10 -16 71 2 37 2 54 0 37 -6 -39 -16 -49 -43 -40 -21 7 -22 11 -17 69 l7
61 -38 -43 c-20 -23 -42 -42 -48 -42 -16 0 -84 77 -84 95 0 8 21 28 46 44 l46
28 -61 7 c-59 7 -61 8 -61 36 0 15 3 36 6 45 6 14 9 14 33 0 25 -16 26 -16 5
2 -11 10 -35 29 -52 43 -24 18 -30 29 -23 39 8 13 12 13 28 0 16 -13 17 -13 4
4 -18 22 -28 22 -41 -4z"/>
<path d="M2155 2840 c-22 -11 -31 -18 -20 -14 11 3 27 7 35 8 17 1 39 -54 39
-101 1 -31 0 -31 -60 -38 l-62 -7 49 -27 c27 -14 50 -33 52 -42 4 -19 -54 -99
-72 -99 -7 0 -32 18 -55 40 -22 22 -43 40 -46 40 -3 0 -5 -17 -4 -37 1 -33 2
-35 8 -13 7 23 8 21 14 -15 4 -22 7 -46 7 -52 0 -20 -28 -15 -33 5 -3 9 -5 -1
-5 -23 0 -22 2 -33 5 -24 2 9 22 22 44 28 54 16 117 75 145 136 27 58 31 138
9 199 -8 22 -12 43 -9 48 7 11 5 10 -41 -12z"/>
<path d="M1250 2830 c-45 -45 -11 -120 54 -120 37 0 76 36 76 70 0 10 -9 29
-21 44 -26 33 -79 36 -109 6z"/>
<path d="M3672 2590 c-26 -24 -29 -66 -6 -98 11 -16 25 -22 54 -22 29 0 43 6
54 22 35 50 4 118 -54 118 -14 0 -36 -9 -48 -20z"/>
<path d="M550 2532 c-60 -30 -63 -110 -5 -148 64 -42 155 33 126 104 -8 18
-27 37 -46 46 -40 19 -33 20 -75 -2z"/>
<path d="M2935 2325 c-53 -53 -12 -125 65 -115 52 6 72 88 29 121 -33 25 -65
24 -94 -6z"/>
<path d="M5605 2295 c-39 -38 -32 -86 16 -110 74 -39 138 63 73 114 -35 27
-59 26 -89 -4z"/>
<path d="M2606 1632 c-14 -42 -26 -80 -26 -85 0 -4 14 -7 30 -7 17 0 30 -2 30
-3 0 -2 -9 -30 -20 -62 -11 -32 -20 -60 -20 -62 0 -1 13 -3 29 -3 28 0 31 4
55 78 32 94 32 92 3 92 -35 0 -37 7 -16 67 10 31 19 58 19 60 0 1 -13 3 -29 3
-28 0 -31 -4 -55 -78z"/>
<path d="M4095 1545 c-54 -53 -16 -145 60 -145 49 0 85 36 85 85 0 49 -36 85
-85 85 -25 0 -44 -8 -60 -25z"/>
<path d="M613 1032 c-28 -4 -53 -38 -53 -70 0 -30 42 -72 73 -72 32 0 67 40
67 77 0 44 -39 73 -87 65z"/>
<path d="M2610 1027 c-13 -7 -31 -24 -39 -38 -31 -55 38 -119 95 -89 53 29 52
104 -2 129 -30 13 -24 13 -54 -2z"/>
<path d="M2996 989 c-46 -36 -26 -110 34 -124 38 -9 80 27 80 68 0 38 -7 50
-37 66 -31 16 -47 14 -77 -10z"/>
<path d="M3913 692 c-54 -8 -71 -87 -27 -121 35 -27 65 -27 92 2 51 54 8 131
-65 119z"/>
<path d="M5555 625 c-68 -68 2 -178 90 -141 62 26 74 89 26 137 -38 37 -82 39
-116 4z"/>
<path d="M655 440 c-26 -29 -24 -79 4 -102 32 -25 67 -23 96 7 30 30 31 54 4
89 -26 33 -77 36 -104 6z"/>
<path d="M1745 305 c-54 -53 -16 -145 60 -145 49 0 85 36 85 85 0 49 -36 85
-85 85 -25 0 -44 -8 -60 -25z"/>
<path d="M4256 5984 c-20 -52 7 -173 54 -242 56 -82 137 -131 243 -146 l37 -5
0 40 c0 21 -4 39 -10 39 -5 0 -10 12 -10 28 0 15 -3 37 -6 49 -5 19 -12 11
-40 -47 -18 -39 -39 -70 -46 -70 -23 1 -123 74 -126 94 -3 12 15 38 50 74 29
30 46 52 37 49 -52 -18 -141 -29 -151 -19 -6 6 -13 45 -16 86 l-5 76 35 0 c19
0 40 -6 48 -12 12 -11 12 -10 1 5 -18 22 -86 24 -95 1z"/>
<path d="M4532 5977 c-37 -39 -24 -99 25 -118 36 -13 78 5 93 40 30 74 -64
136 -118 78z"/>
<path d="M4813 5971 c-35 -14 -63 -29 -63 -32 0 -4 21 -10 47 -14 68 -10 93
-22 93 -44 0 -32 -41 -132 -56 -138 -7 -3 -43 11 -79 31 l-64 37 29 -63 c17
-35 30 -69 30 -76 0 -12 -34 -30 -87 -46 -17 -6 -22 -2 -26 16 -2 13 -5 3 -5
-22 -1 -25 2 -40 6 -33 4 6 34 22 67 34 125 47 205 167 205 309 0 82 -1 82
-97 41z"/>
<path d="M4944 5989 c-4 -7 3 -19 16 -29 21 -16 24 -26 25 -96 1 -89 20 -137
77 -191 37 -35 111 -72 146 -73 18 0 22 -6 22 -30 0 -26 3 -30 28 -29 23 2 24
2 5 6 -18 3 -23 11 -23 34 0 26 -3 29 -31 29 l-32 0 6 68 7 67 -41 -47 c-47
-55 -56 -54 -105 10 l-35 46 28 22 c15 13 42 29 58 36 29 13 29 13 -35 18 -61
5 -65 7 -68 30 -2 14 1 35 5 47 8 21 11 20 81 -32 39 -30 72 -51 72 -47 0 4
-45 39 -100 77 -58 40 -98 75 -95 83 6 15 -1 16 -11 1z"/>
<path d="M5430 5985 c-28 -16 -19 -21 10 -5 15 8 20 4 34 -30 9 -22 16 -54 16
-70 0 -31 -8 -34 -95 -43 -29 -2 -29 -3 22 -30 28 -14 54 -31 57 -36 6 -9 -40
-77 -69 -101 -16 -13 -22 -10 -64 36 l-47 51 -2 -36 c-2 -23 1 -31 6 -23 7 10
11 4 16 -18 9 -48 8 -60 -8 -60 -8 0 -17 10 -19 23 -2 12 -5 0 -5 -28 -1 -36
2 -44 8 -29 5 12 24 25 48 32 50 15 112 74 142 136 19 40 22 59 18 119 -5 66
-23 128 -37 127 -3 -1 -17 -7 -31 -15z"/>
<path d="M165 2080 c-44 -11 -102 -37 -136 -60 -47 -34 -33 -42 17 -10 78 49
134 63 238 58 72 -3 102 -10 147 -31 235 -113 306 -401 150 -610 -43 -58 -134
-121 -204 -142 -104 -31 -246 -10 -332 48 -40 27 -66 27 -30 0 207 -155 506
-81 622 154 32 65 37 86 41 163 8 157 -53 279 -184 370 -85 59 -228 86 -329
60z"/>
<path d="M133 2031 c-29 -11 -70 -32 -93 -48 -36 -26 -40 -32 -40 -74 0 -44 2
-47 60 -92 33 -26 64 -47 68 -47 5 0 18 10 30 23 l21 23 -59 86 -59 86 52 22
c29 13 71 25 94 28 l42 5 3 -104 3 -104 32 -3 c38 -4 42 3 71 107 12 40 23 75
26 78 14 15 156 -82 156 -107 0 -4 -17 -19 -37 -33 -21 -14 -55 -41 -76 -59
-36 -31 -38 -35 -26 -61 16 -34 29 -34 119 3 40 17 78 30 85 30 7 0 16 -12 20
-27 6 -27 9 -153 3 -158 -2 -2 -27 3 -57 11 -30 7 -75 16 -100 20 -44 6 -46 5
-58 -25 l-11 -31 76 -44 c42 -25 84 -49 92 -54 12 -7 2 -21 -47 -70 -34 -34
-68 -62 -75 -62 -8 0 -33 40 -57 89 l-44 88 -33 -10 c-39 -12 -39 -12 -19
-127 8 -47 15 -87 15 -89 0 -9 -147 7 -171 19 l-26 12 45 90 44 90 -28 24 -29
24 -73 -77 c-39 -43 -71 -82 -69 -88 2 -5 25 -25 51 -43 146 -98 351 -78 476
47 187 187 137 497 -98 613 -58 29 -78 33 -157 36 -69 2 -102 -2 -142 -17z"/>
<path d="M5966 1915 c-15 -19 -39 -61 -54 -93 -23 -49 -27 -70 -27 -152 0 -87
3 -101 32 -161 18 -35 44 -76 59 -89 25 -22 24 -19 -7 25 -20 28 -43 69 -52
92 l-16 41 47 9 47 8 3 53 c2 31 -1 53 -7 53 -6 1 -15 3 -21 4 -5 1 -25 3 -44
4 -33 1 -33 1 -26 39 8 46 44 127 59 137 7 4 18 1 26 -5 13 -11 15 -6 15 29 0
22 -2 41 -4 41 -2 0 -16 -16 -30 -35z"/>
<path d="M233 1809 c-76 -16 -119 -78 -110 -157 14 -124 183 -167 255 -65 76
108 -16 250 -145 222z m97 -24 c47 -25 75 -92 59 -148 -31 -115 -200 -130
-245 -22 -26 64 -11 122 42 164 32 25 101 28 144 6z"/>
<path d="M4492 245 c-65 -18 -129 -61 -167 -112 -16 -21 -30 -40 -31 -42 -2
-2 -10 1 -17 8 -11 9 -17 7 -28 -6 -12 -16 -12 -17 1 -6 13 10 28 3 84 -38 78
-58 97 -61 31 -5 -25 20 -45 43 -45 50 0 18 95 106 114 106 8 0 31 -24 52 -52
55 -77 57 -79 51 -30 -3 23 -3 60 0 82 5 38 8 40 39 40 55 0 134 -21 134 -35
0 -7 -9 -42 -20 -76 -10 -35 -18 -64 -17 -65 1 -2 20 6 42 17 22 11 31 17 20
14 -14 -3 -10 4 15 25 34 30 60 39 60 20 0 -5 -12 -16 -27 -24 -16 -8 -23 -15
-18 -15 6 0 30 11 55 25 25 14 38 23 30 21 -8 -2 -32 12 -54 31 -79 70 -198
97 -304 67z"/>
<path d="M3305 236 c-49 -21 -69 -62 -66 -135 1 -13 17 -38 37 -57 29 -28 43
-34 79 -34 85 0 144 86 112 163 -17 41 -68 77 -107 77 -14 -1 -39 -7 -55 -14z"/>
</g>
</svg>
