<?xml version="1.0" standalone="no"?>
<!DOCTYPE svg PUBLIC "-//W3C//DTD SVG 20010904//EN"
 "http://www.w3.org/TR/2001/REC-SVG-20010904/DTD/svg10.dtd">
<svg version="1.0" xmlns="http://www.w3.org/2000/svg"
 width="503.000000pt" height="209.000000pt" viewBox="0 0 503.000000 209.000000"
 preserveAspectRatio="xMidYMid meet">
<metadata>
Created by potrace 1.16, written by Peter Selinger 2001-2019
</metadata>
<g transform="translate(0.000000,209.000000) scale(0.100000,-0.100000)"
fill="#000000" stroke="none">
<path d="M2400 1951 c0 -4 -24 -11 -54 -14 -66 -7 -127 -37 -155 -76 -12 -16
-39 -68 -61 -116 l-40 -88 -71 5 c-49 4 -69 2 -66 -6 2 -6 19 -13 38 -16 33
-5 34 -6 37 -58 2 -40 -3 -65 -20 -100 -20 -41 -23 -65 -26 -185 -3 -114 -1
-142 12 -163 29 -44 76 -25 76 31 0 50 13 55 132 55 l108 0 0 55 0 55 -123 0
c-82 0 -127 4 -135 12 -8 8 -12 46 -12 105 0 81 2 94 19 103 33 17 132 11 211
-13 l75 -24 3 -62 c3 -53 5 -61 17 -51 8 7 15 28 15 47 0 96 102 193 203 193
12 0 32 11 46 24 36 33 83 46 163 46 78 0 78 0 35 85 -48 96 -97 132 -193 142
-30 3 -54 10 -54 14 0 5 -40 9 -90 9 -49 0 -90 -4 -90 -9z"/>
<path d="M2797 1448 c-10 -36 -54 -58 -117 -58 l-50 0 0 -50 c0 -67 -21 -107
-63 -119 l-32 -9 32 -1 c28 -1 35 -7 48 -37 8 -20 15 -56 15 -80 l0 -44 48 0
c43 1 46 2 28 15 -11 8 -23 15 -28 15 -21 0 -38 63 -38 146 0 85 1 87 34 120
33 33 35 34 120 34 141 0 176 -33 176 -168 0 -55 -5 -76 -23 -103 -31 -47 -60
-59 -147 -60 -74 -1 -74 -1 -42 -15 20 -9 32 -21 32 -33 0 -29 18 -35 22 -9 4
31 61 58 121 58 l47 0 0 53 c0 63 17 99 50 107 l25 6 -23 8 c-35 12 -62 63
-62 119 l0 47 -50 0 c-66 0 -108 21 -112 57 l-3 28 -8 -27z"/>
</g>
</svg>
